<svg xmlns="http://www.w3.org/2000/svg" xmlns:xlink="http://www.w3.org/1999/xlink" width="204" height="26" viewBox="0 0 204 26">
    <defs>
        <path id="a" d="M.517.526h5.336v5.42H.517z"/>
        <path id="c" d="M0 18.405h96.317V.06H0z"/>
    </defs>
    <g fill="none" fill-rule="evenodd">
        <g transform="translate(90.463 17.43)">
            <mask id="b" fill="#fff">
                <use xlink:href="#a"/>
            </mask>
            <path fill="#7FC241" d="M.517 3.235c0-1.495 1.197-2.71 2.668-2.71 1.474 0 2.668 1.215 2.668 2.71 0 1.496-1.194 2.71-2.668 2.71-1.471 0-2.668-1.214-2.668-2.71" mask="url(#b)"/>
        </g>
        <g transform="translate(0 5)">
            <path fill="#FFF" d="M9.798 8.918c0-1.648-.313-2.87-.938-3.666-.624-.794-1.573-1.193-2.848-1.193H4.657v10.074h1.037c1.416 0 2.453-.428 3.113-1.286.66-.856.99-2.167.99-3.93m4.835-.17c0 3-.792 5.313-2.376 6.936-1.583 1.624-3.81 2.436-6.68 2.436H0V.135h5.965c2.768 0 4.904.739 6.41 2.215 1.504 1.475 2.257 3.608 2.257 6.397"/>
            <mask id="d" fill="#fff">
                <use xlink:href="#c"/>
            </mask>
            <path fill="#FFF" d="M30.078 18.119h4.437V.06h-4.437zM40.748 11.383c0 1.15.147 2.03.443 2.633.295.604.79.906 1.486.906.689 0 1.175-.302 1.458-.906.285-.604.426-1.482.426-2.633 0-1.146-.144-2.01-.432-2.593-.287-.584-.778-.877-1.475-.877-.68 0-1.168.29-1.463.87-.296.581-.443 1.447-.443 2.6m8.33 0c0 2.193-.566 3.904-1.697 5.13-1.131 1.228-2.714 1.842-4.749 1.842-1.952 0-3.504-.627-4.658-1.882-1.155-1.255-1.731-2.951-1.731-5.09 0-2.188.565-3.887 1.696-5.098 1.132-1.21 2.719-1.817 4.761-1.817 1.263 0 2.38.28 3.348.841.968.56 1.715 1.364 2.241 2.41.525 1.044.788 2.266.788 3.664M50.839 18.119h4.437V4.705h-4.437zM50.839 3.083h4.437V.061h-4.437zM64.268 14.697c.598 0 1.312-.155 2.145-.462v3.375a8.54 8.54 0 0 1-1.708.573c-.54.115-1.175.172-1.901.172-1.49 0-2.565-.38-3.223-1.143-.658-.761-.987-1.93-.987-3.509v-5.53H57.04V4.706h1.554V1.28l4.47-.792v4.218h2.833v3.467h-2.832v5.221c0 .869.402 1.303 1.203 1.303M74.538 14.697c.6 0 1.313-.155 2.146-.462v3.375a8.548 8.548 0 0 1-1.709.573c-.54.115-1.174.172-1.9.172-1.49 0-2.565-.38-3.223-1.143-.658-.761-.987-1.93-.987-3.509v-5.53H67.31V4.706h1.555V1.229l4.472-.74v4.217h2.832v3.467h-2.832v5.221c0 .869.4 1.303 1.201 1.303M82.283 9.749c.06-.735.267-1.273.618-1.617.353-.343.79-.515 1.31-.515.57 0 1.021.193 1.357.58.337.388.513.905.528 1.552h-3.813zm6.257-3.7c-1.053-1.054-2.55-1.581-4.486-1.581-2.035 0-3.6.606-4.7 1.818-1.096 1.21-1.645 2.95-1.645 5.214 0 2.194.593 3.886 1.777 5.074 1.184 1.187 2.846 1.781 4.988 1.781 1.03 0 1.914-.072 2.655-.213a7.607 7.607 0 0 0 2.143-.763l-.682-3.022c-.503.209-.982.37-1.434.476a9.361 9.361 0 0 1-2.15.231c-.855 0-1.53-.213-2.025-.639-.495-.426-.758-1.015-.789-1.765h7.932v-2.058c0-1.982-.527-3.5-1.584-4.553zM20.521 9.749c.06-.735.267-1.273.618-1.617.353-.343.789-.515 1.312-.515.566 0 1.019.193 1.355.58.337.388.513.905.527 1.552h-3.812zm6.258-3.7c-1.055-1.054-2.55-1.581-4.487-1.581-2.036 0-3.602.606-4.699 1.818-1.096 1.21-1.645 2.95-1.645 5.214 0 2.194.592 3.886 1.776 5.074 1.184 1.187 2.846 1.781 4.988 1.781 1.028 0 1.914-.072 2.655-.213a7.607 7.607 0 0 0 2.143-.763l-.681-3.022c-.504.209-.983.37-1.434.476a9.378 9.378 0 0 1-2.15.231c-.855 0-1.531-.213-2.026-.639-.495-.426-.758-1.015-.789-1.765h7.932v-2.058c0-1.982-.527-3.5-1.583-4.553z" mask="url(#d)"/>
        </g>
        <g fill-rule="nonzero">
            <path fill="#FFF" d="M144.03 22.607h-3.52V8.93H136V6h12.54v2.93h-4.51v13.677zm20.363 0h-3.51v-7.168h-6.577v7.168h-3.521V6h3.521v6.509h6.577V6h3.51v16.607z"/>
            <path fill="#C4D600" d="M168.273 22.607V6h3.521v16.607h-3.521zm18.84 0h-3.465v-7.418c0-.916-.163-1.603-.488-2.061-.326-.458-.845-.687-1.556-.687-.97 0-1.67.323-2.102.97-.431.648-.647 1.722-.647 3.221v5.975h-3.465v-12.7h2.647l.466 1.625h.193a3.661 3.661 0 0 1 1.596-1.392c.677-.314 1.448-.471 2.311-.471 1.477 0 2.598.4 3.362 1.198.765.8 1.148 1.952 1.148 3.46v8.28zm16.886 0H200l-4.35-6.997-1.488 1.067v5.93h-3.521V6h3.52v7.6l1.387-1.955L200.046 6h3.907l-5.793 7.35L204 22.606z"/>
        </g>
        <path stroke="#FFF" stroke-width=".84" d="M116.009 0v25.879"/>
    </g>
</svg>
